# xmcd
#
# Track frame offsets:
#	150
#	15735
#	32858
#	48248
#	61811
#	77553
#	90971
#	108626
#	126974
#	140320
#	153271
#	167001
#	181647
#	203439
#	218563
#	232861
#	246201
#	262439
#	279091
#
# Disc length: 3982 seconds
#
# Revision: 0
# Processed by: cddbd v1.5.1PL2 Copyright (c) Steve Scherf et al.
# Submitted via: SynApp - FreeCDDB Version: 2.0
#
DISCID=ef0f8c13
DTITLE=Brooks and Duun - The Greatest Hits Collection
DYEAR=1997
DGENRE=Country
TTITLE0=Brooks and Dunn - My Maria
TTITLE1=Brooks and Dunn - Honky Tonk Truth
TTITLE2=Brooks and Dunn - You're Gonna Miss Me When I'm Gone
TTITLE3=Brooks and Dunn - Boot Scootin' Boogie
TTITLE4=Brooks and Dunn - He's Got You
TTITLE5=Brooks and Dunn - Hard Workin' Man
TTITLE6=Brooks and Dunn - That Ain't No Way To Go
TTITLE7=Brooks and Dunn - Rock My World
TTITLE8=Brooks and Dunn - Neon Moon
TTITLE9=Brooks and Dunn - Lost And Found
TTITLE10=Brooks and Dunn - She's Not The Cheatin' Kind
TTITLE11=Brooks and Dunn - Brand New Man
TTITLE12=Brooks and Dunn - Days Of Thunder
TTITLE13=Brooks and Dunn - We'll Burn That Bridge
TTITLE14=Brooks and Dunn - She Used To Be Mine
TTITLE15=Brooks and Dunn - Mama Don't Get Dressed Up For Nothing
TTITLE16=Brooks and Dunn - My Next Broken Heart
TTITLE17=Brooks and Dunn - Whiskey Under The Bridge
TTITLE18=Brooks and Dunn - Little Miss Honky Tonk
EXTD=
EXTT0=
EXTT1=
EXTT2=
EXTT3=
EXTT4=
EXTT5=
EXTT6=
EXTT7=
EXTT8=
EXTT9=
EXTT10=
EXTT11=
EXTT12=
EXTT13=
EXTT14=
EXTT15=
EXTT16=
EXTT17=
EXTT18=
PLAYORDER=
